<?xml version="1.0" encoding="UTF-8"?>
<svg id="_图层_1" data-name="图层 1" xmlns="http://www.w3.org/2000/svg" viewBox="0 0 1066.21 1066.21">
  <defs>
    <style>
      .cls-1 {
        fill: #d7000f;
      }
    </style>
  </defs>
  <g>
    <polygon class="cls-1" points="224.21 671.06 434.72 460.55 224.21 460.55 224.21 671.06"/>
    <polygon class="cls-1" points="224.21 841.48 435.78 630.95 435.78 559.87 535.09 460.55 436.84 460.55 436.84 460.55 224.21 673.18 224.21 841.48"/>
    <polygon class="cls-1" points="708.05 358.68 842 224.73 672.66 224.73 538.71 358.68 708.05 358.68"/>
    <polygon class="cls-1" points="224.21 224.73 224.21 459.05 436.22 459.05 670.54 224.73 224.21 224.73"/>
  </g>
  <g>
    <path class="cls-1" d="M344.91,783.81v-50.4h38.66v10.08h-26.06v30.24h27v10.08h-39.6Zm11.66-20.74v-9.72h23.98v9.72h-23.98Z"/>
    <path d="M405.25,784.39c-3.26,0-6.44-.38-9.54-1.15-3.1-.77-5.56-1.75-7.38-2.95l3.89-8.57c1.78,1.1,3.89,1.99,6.34,2.66,2.45,.67,4.85,1.01,7.2,1.01,2.5,0,4.25-.28,5.26-.83,1.01-.55,1.51-1.33,1.51-2.34,0-.82-.42-1.45-1.26-1.91-.84-.46-1.96-.79-3.35-1.01-1.39-.22-2.92-.43-4.57-.65s-3.31-.53-4.97-.94c-1.66-.41-3.17-1.03-4.54-1.87s-2.47-1.96-3.31-3.35-1.26-3.22-1.26-5.47c0-2.45,.71-4.62,2.12-6.52,1.41-1.9,3.49-3.4,6.23-4.5,2.74-1.1,6.05-1.66,9.94-1.66,2.74,0,5.47,.28,8.21,.83,2.74,.55,5.04,1.38,6.91,2.48l-3.89,8.57c-1.87-1.1-3.77-1.86-5.69-2.27-1.92-.41-3.74-.61-5.47-.61-2.4,0-4.15,.31-5.26,.94-1.1,.62-1.66,1.39-1.66,2.3s.42,1.58,1.26,2.02c.84,.43,1.97,.78,3.38,1.04,1.42,.26,2.94,.5,4.57,.72,1.63,.22,3.28,.54,4.93,.97,1.66,.43,3.17,1.06,4.54,1.87,1.37,.82,2.47,1.92,3.31,3.31,.84,1.39,1.26,3.17,1.26,5.33,0,2.45-.72,4.61-2.16,6.48-1.44,1.87-3.54,3.35-6.3,4.43-2.76,1.08-6.18,1.62-10.26,1.62Z"/>
    <path d="M443.91,784.39c-3.26,0-6.44-.38-9.54-1.15-3.1-.77-5.56-1.75-7.38-2.95l3.89-8.57c1.78,1.1,3.89,1.99,6.34,2.66,2.45,.67,4.85,1.01,7.2,1.01,2.5,0,4.25-.28,5.26-.83,1.01-.55,1.51-1.33,1.51-2.34,0-.82-.42-1.45-1.26-1.91-.84-.46-1.96-.79-3.35-1.01-1.39-.22-2.92-.43-4.57-.65-1.66-.22-3.31-.53-4.97-.94-1.66-.41-3.17-1.03-4.54-1.87s-2.47-1.96-3.31-3.35c-.84-1.39-1.26-3.22-1.26-5.47,0-2.45,.71-4.62,2.12-6.52,1.42-1.9,3.49-3.4,6.23-4.5,2.74-1.1,6.05-1.66,9.94-1.66,2.74,0,5.47,.28,8.21,.83,2.74,.55,5.04,1.38,6.91,2.48l-3.89,8.57c-1.87-1.1-3.77-1.86-5.69-2.27-1.92-.41-3.74-.61-5.47-.61-2.4,0-4.15,.31-5.26,.94-1.11,.62-1.66,1.39-1.66,2.3s.42,1.58,1.26,2.02c.84,.43,1.97,.78,3.38,1.04,1.41,.26,2.94,.5,4.57,.72,1.63,.22,3.28,.54,4.93,.97,1.66,.43,3.17,1.06,4.54,1.87,1.37,.82,2.47,1.92,3.31,3.31,.84,1.39,1.26,3.17,1.26,5.33,0,2.45-.72,4.61-2.16,6.48-1.44,1.87-3.54,3.35-6.3,4.43-2.76,1.08-6.18,1.62-10.26,1.62Z"/>
    <path d="M488.91,784.39c-4.51,0-8.45-.86-11.81-2.59-3.36-1.73-5.98-4.1-7.85-7.13-1.87-3.02-2.81-6.46-2.81-10.3s.91-7.33,2.74-10.33c1.82-3,4.32-5.36,7.49-7.09,3.17-1.73,6.77-2.59,10.8-2.59,3.79,0,7.24,.79,10.33,2.38,3.1,1.58,5.54,3.89,7.34,6.91,1.8,3.02,2.7,6.65,2.7,10.87,0,.48-.01,1-.04,1.55-.03,.55-.08,1.09-.18,1.62h-31.25v-6.84h24.84l-4.68,1.94c.05-1.87-.32-3.52-1.12-4.93-.79-1.42-1.86-2.53-3.2-3.35-1.34-.82-2.91-1.22-4.68-1.22s-3.42,.41-4.79,1.22c-1.37,.82-2.44,1.93-3.2,3.35-.77,1.42-1.15,3.11-1.15,5.08v1.94c0,1.97,.44,3.72,1.33,5.26,.89,1.54,2.15,2.71,3.78,3.53,1.63,.82,3.53,1.22,5.69,1.22,2.02,0,3.77-.3,5.26-.9,1.49-.6,2.88-1.52,4.18-2.77l6.48,6.91c-1.83,2.06-4.08,3.62-6.77,4.68-2.69,1.05-5.83,1.58-9.43,1.58Z"/>
    <path d="M514.97,783.81v-38.81h11.66v10.8l-2.23-3.24c1.39-2.69,3.38-4.73,5.98-6.12,2.59-1.39,5.54-2.09,8.86-2.09,3.07,0,5.82,.61,8.24,1.84s4.33,3.1,5.72,5.62c1.39,2.52,2.09,5.77,2.09,9.76v22.25h-12.17v-20.38c0-2.93-.64-5.09-1.91-6.48-1.27-1.39-3.06-2.09-5.36-2.09-1.68,0-3.17,.34-4.46,1.01-1.29,.67-2.33,1.74-3.1,3.2-.77,1.46-1.15,3.35-1.15,5.65v19.08h-12.17Z"/>
    <path d="M564.8,783.81v-38.81h11.66v10.66l-2.3-3.1c1.39-2.69,3.32-4.73,5.8-6.12,2.47-1.39,5.29-2.09,8.46-2.09,3.5,0,6.6,.9,9.29,2.7s4.46,4.55,5.33,8.24l-4.18-1.01c1.3-3.02,3.36-5.44,6.19-7.24,2.83-1.8,6.12-2.7,9.86-2.7,3.02,0,5.72,.61,8.1,1.84,2.38,1.22,4.25,3.1,5.62,5.62,1.37,2.52,2.05,5.77,2.05,9.76v22.25h-12.24v-20.38c0-2.93-.6-5.09-1.8-6.48-1.2-1.39-2.86-2.09-4.97-2.09-1.49,0-2.83,.34-4.03,1.01-1.2,.67-2.14,1.7-2.81,3.1-.67,1.39-1.01,3.19-1.01,5.4v19.44h-12.17v-20.38c0-2.93-.6-5.09-1.8-6.48-1.2-1.39-2.86-2.09-4.97-2.09-1.54,0-2.91,.34-4.1,1.01-1.2,.67-2.14,1.7-2.81,3.1-.67,1.39-1.01,3.19-1.01,5.4v19.44h-12.17Z"/>
    <path d="M659.98,784.39c-4.51,0-8.45-.86-11.81-2.59-3.36-1.73-5.98-4.1-7.85-7.13-1.87-3.02-2.81-6.46-2.81-10.3s.91-7.33,2.74-10.33c1.82-3,4.32-5.36,7.49-7.09,3.17-1.73,6.77-2.59,10.8-2.59,3.79,0,7.24,.79,10.33,2.38s5.54,3.89,7.34,6.91c1.8,3.02,2.7,6.65,2.7,10.87,0,.48-.01,1-.04,1.55-.02,.55-.08,1.09-.18,1.62h-31.25v-6.84h24.84l-4.68,1.94c.05-1.87-.32-3.52-1.12-4.93-.79-1.42-1.86-2.53-3.21-3.35-1.34-.82-2.9-1.22-4.68-1.22s-3.42,.41-4.79,1.22c-1.37,.82-2.44,1.93-3.2,3.35-.77,1.42-1.15,3.11-1.15,5.08v1.94c0,1.97,.44,3.72,1.33,5.26s2.15,2.71,3.78,3.53c1.63,.82,3.53,1.22,5.69,1.22,2.02,0,3.77-.3,5.26-.9,1.49-.6,2.88-1.52,4.18-2.77l6.48,6.91c-1.83,2.06-4.08,3.62-6.77,4.68-2.69,1.05-5.83,1.58-9.43,1.58Z"/>
    <path d="M686.04,783.81v-53.42h12.17v53.42h-12.17Z"/>
    <path d="M714.19,739.96c-2.26,0-4.08-.64-5.47-1.91-1.39-1.27-2.09-2.84-2.09-4.72s.7-3.52,2.09-4.79c1.39-1.27,3.21-1.91,5.47-1.91s4.08,.6,5.47,1.8c1.39,1.2,2.09,2.76,2.09,4.68s-.7,3.6-2.09,4.9c-1.39,1.3-3.22,1.94-5.47,1.94Zm-6.12,43.85v-38.81h12.17v38.81h-12.17Z"/>
    <path d="M742.2,784.39c-3.07,0-5.69-.52-7.85-1.55-2.16-1.03-3.82-2.44-4.97-4.21-1.15-1.78-1.73-3.79-1.73-6.05s.59-4.33,1.76-6.08c1.18-1.75,3-3.12,5.47-4.1,2.47-.98,5.7-1.48,9.68-1.48h9.86v6.84h-8.35c-2.5,0-4.2,.4-5.11,1.19-.91,.79-1.37,1.84-1.37,3.13s.5,2.34,1.51,3.13c1.01,.79,2.42,1.19,4.25,1.19,1.73,0,3.29-.41,4.68-1.22,1.39-.82,2.4-2.04,3.02-3.67l1.8,5.04c-.77,2.59-2.22,4.55-4.36,5.87-2.14,1.32-4.91,1.98-8.32,1.98Zm11.59-.58v-7.49l-.72-1.66v-13.46c0-2.35-.71-4.15-2.12-5.4-1.42-1.25-3.59-1.87-6.52-1.87-2.02,0-4.01,.31-5.98,.94-1.97,.62-3.65,1.46-5.04,2.52l-4.18-8.42c2.11-1.49,4.69-2.63,7.74-3.42,3.05-.79,6.08-1.19,9.11-1.19,6.1,0,10.82,1.42,14.18,4.25,3.36,2.83,5.04,7.25,5.04,13.25v21.96h-11.52Z"/>
  </g>
</svg>